<?xml version="1.0" encoding="UTF-8"?>
<svg xmlns="http://www.w3.org/2000/svg" width="1200" height="500" viewBox="0 0 1200 500" role="img" aria-label="Architecture diagram: Tailscale client to exit node to gluetun to ProtonVPN and NextDNS">
  <defs>
    <filter id="shadow" x="-20%" y="-20%" width="140%" height="140%">
      <feDropShadow dx="0" dy="6" stdDeviation="8" flood-color="#000" flood-opacity="0.12"/>
    </filter>
    <style>
      .title { font: 700 18px/1.2 'Segoe UI', Roboto, Arial; fill: #0b4870 }
      .label { font: 600 13px/1.2 'Segoe UI', Roboto, Arial; fill: #073049 }
      .small { font: 400 11px/1.2 'Segoe UI', Roboto, Arial; fill: #555 }
      .arrow { stroke: #2b2b2b; stroke-width:2.5; fill: none; marker-end: url(#arrowhead) }
    </style>
    <marker id="arrowhead" markerWidth="10" markerHeight="8" refX="9" refY="4" orient="auto">
      <path d="M0,0 L10,4 L0,8 z" fill="#2b2b2b" />
    </marker>
  </defs>

  <!-- Background -->
  <rect width="100%" height="100%" fill="#ffffff" />

  <!-- Title -->
  <text x="40" y="28" class="title">Architecture — Tailscale Exit Node via Gluetun (sg example)</text>

  <!-- Arrows (drawn first so they appear behind boxes) -->
  <path d="M280 130 L380 130" class="arrow" stroke-dasharray="0" />
  <path d="M560 130 L660 130" class="arrow" stroke-dasharray="0" />
  <path d="M960 130 L1040 130" class="arrow" stroke-dasharray="0" />

  <!-- Tailscale Client -->
  <g transform="translate(40,100)">
    <rect width="240" height="60" class="box" fill="#E8F5FF" stroke="#66B2FF" stroke-width="2" rx="8" ry="8" filter="url(#shadow)"/>
    <text x="15" y="25" class="label">Tailscale Client</text>
    <text x="15" y="42" class="small">Selects exit node (sg)</text>
  </g>

  <!-- SG Exit Node -->
  <g transform="translate(380,100)">
    <rect width="180" height="60" class="box" fill="#F0FFF4" stroke="#39B54A" stroke-width="2" rx="8" ry="8" filter="url(#shadow)"/>
    <text x="15" y="25" class="label">sg-exit-node</text>
    <text x="15" y="42" class="small">network: sg-gluetun</text>
  </g>

  <!-- Gluetun -->
  <g transform="translate(660,100)">
    <rect width="300" height="60" class="box" fill="#FFF8E6" stroke="#FF9F1C" stroke-width="2" rx="8" ry="8" filter="url(#shadow)"/>
    <text x="15" y="25" class="label">sg-gluetun (Gluetun)</text>
    <text x="15" y="42" class="small">WireGuard → ProtonVPN (SG)</text>
  </g>

  <!-- ProtonVPN -->
  <g transform="translate(1040,100)">
    <rect width="150" height="60" class="box" fill="#F7E9FF" stroke="#9B59FF" stroke-width="2" rx="8" ry="8" filter="url(#shadow)"/>
    <text x="15" y="25" class="label">ProtonVPN</text>
    <text x="15" y="42" class="small">WireGuard tunnel</text>
  </g>

  <!-- NextDNS box (below) -->
  <g transform="translate(280,240)">
    <rect width="640" height="90" class="box" fill="#E9FFF7" stroke="#00B3A6" stroke-width="2" rx="8" ry="8" filter="url(#shadow)"/>
    <text x="20" y="28" class="label">NextDNS (Shared DNS Resolver)</text>
    <text x="20" y="50" class="small">All Gluetun instances point to this resolver (172.20.0.2:53)</text>
    <text x="20" y="67" class="small">Configure with your NextDNS profile ID or preferred resolver endpoint</text>
  </g>

  <!-- Arrows from gluetun down to NextDNS -->
  <path d="M810 160 L810 180 Q810 240 560 240" class="arrow" />

</svg>
