<?xml version="1.0" encoding="UTF-8"?>
<svg xmlns="http://www.w3.org/2000/svg" width="1200" height="640" viewBox="0 0 1200 640" role="img" aria-label="Architecture diagram: Tailscale client to exit nodes to gluetun to ProtonVPN and NextDNS">
  <defs>
    <filter id="shadow" x="-20%" y="-20%" width="140%" height="140%">
      <feDropShadow dx="0" dy="6" stdDeviation="8" flood-color="#000" flood-opacity="0.12"/>
    </filter>
    <style>
      .title { font: 700 20px/1.2 'Segoe UI', Roboto, Arial; fill: #0b4870 }
      .label { font: 600 14px/1.2 'Segoe UI', Roboto, Arial; fill: #073049 }
      .small { font: 400 12px/1.2 'Segoe UI', Roboto, Arial; fill: #073049 }
      .box { rx:12; ry:12; filter:url(#shadow) }
      .arrow { stroke: #2b2b2b; stroke-width:2.5; fill: none; marker-end: url(#arrowhead) }
    </style>
    <marker id="arrowhead" markerWidth="10" markerHeight="8" refX="9" refY="4" orient="auto">
      <path d="M0,0 L10,4 L0,8 z" fill="#2b2b2b" />
    </marker>
  </defs>

  <!-- Background -->
  <rect width="100%" height="100%" fill="#ffffff" />

  <!-- Title -->
  <text x="40" y="34" class="title">Architecture — Tailscale Exit Nodes via Gluetun</text>

  <!-- Tailscale Client -->
  <g transform="translate(50,80)">
    <rect width="220" height="72" class="box" fill="#E8F5FF" stroke="#66B2FF" stroke-width="2"/>
    <text x="18" y="38" class="label">Tailscale Client</text>
    <text x="18" y="56" class="small">Selects advertised exit node</text>
  </g>

  <!-- Exit Nodes group -->
  <g transform="translate(330,40)">
    <!-- SG Exit Node -->
    <rect x="0" y="16" width="240" height="72" class="box" fill="#F0FFF4" stroke="#39B54A" stroke-width="2"/>
    <text x="16" y="44" class="label">sg-exit-node (Tailscale)</text>
    <text x="16" y="62" class="small">network_mode: service:sg-gluetun</text>

    <!-- CA Exit Node -->
    <rect x="0" y="120" width="240" height="72" class="box" fill="#F0FFF4" stroke="#39B54A" stroke-width="2"/>
    <text x="16" y="148" class="label">ca-exit-node (Tailscale)</text>
    <text x="16" y="166" class="small">network_mode: service:ca-gluetun</text>
  </g>

  <!-- Arrows from Tailscale Client to Exit Nodes -->
  <path d="M270 116 L330 116" class="arrow" />
  <path d="M270 140 L330 156" class="arrow" />

  <!-- Gluetun group -->
  <g transform="translate(620,40)">
    <!-- SG Gluetun -->
    <rect x="0" y="16" width="260" height="72" class="box" fill="#FFF8E6" stroke="#FF9F1C" stroke-width="2"/>
    <text x="16" y="44" class="label">sg-gluetun (Gluetun)</text>
    <text x="16" y="62" class="small">WireGuard → ProtonVPN (Singapore)</text>

    <!-- CA Gluetun -->
    <rect x="0" y="120" width="260" height="72" class="box" fill="#FFF8E6" stroke="#FF9F1C" stroke-width="2"/>
    <text x="16" y="148" class="label">ca-gluetun (Gluetun)</text>
    <text x="16" y="166" class="small">WireGuard → ProtonVPN (Canada)</text>
  </g>

  <!-- Arrows from Exit Nodes to Gluetun -->
  <path d="M570 52 L620 52" class="arrow" />
  <path d="M570 156 L620 172" class="arrow" />

  <!-- ProtonVPN clouds -->
  <g transform="translate(960,28)">
    <g>
      <ellipse cx="80" cy="44" rx="88" ry="42" fill="#F7E9FF" stroke="#9B59FF" stroke-width="2" />
      <text x="40" y="48" class="label">ProtonVPN</text>
      <text x="20" y="66" class="small">WireGuard tunnel (country-specific)</text>
    </g>
  </g>

  <!-- Arrows from Gluetun to ProtonVPN -->
  <path d="M880 52 L960 52" class="arrow" />
  <path d="M880 172 L960 172" class="arrow" />

  <!-- NextDNS resolver (shared) -->
  <g transform="translate(420,260)">
    <rect width="360" height="86" class="box" fill="#E9FFF7" stroke="#00B3A6" stroke-width="2"/>
    <text x="18" y="40" class="label">NextDNS (shared DNS resolver)</text>
    <text x="18" y="60" class="small">All Gluetun instances point to this resolver (172.20.0.2:53)</text>
  </g>

  <!-- Arrows from NextDNS to Gluetun (upstream resolver relation) -->
  <path d="M540 200 L540 246" class="arrow" />
  <path d="M740 200 L740 246" class="arrow" />

  <!-- Footer note -->
  <text x="40" y="350" class="small">Note: Each country gets a separate Gluetun instance and WireGuard config. Tailscale exit node containers share the Gluetun network namespace so all their traffic is routed through the VPN tunnel.</text>

</svg>
